PathFileType	4	(X/Y/Z)	/Users/niels/Desktop/University/Third Semester/Perception and Action/Exam/Gymnastics Motion Tracking/Code for Gym Tracking/Analyzed Data/Webcam_Backflip/id12_2_trajectory_Sports2D/id12_2_trajectory_Sports2D_px_person00.trc
DataRate	CameraRate	NumFrames	NumMarkers	Units	OrigDataRate	OrigDataStartFrame	OrigNumFrames
29.714285714285715	29.714285714285715	9	22	m	29.714285714285715	52	105
Frame#	Time	Hip			RHip			RKnee			RAnkle			RBigToe			RSmallToe			RHeel			LHip			LKnee			LAnkle			LBigToe			LSmallToe			LHeel			Neck			Head			Nose			RShoulder			RElbow			RWrist			LShoulder			LElbow			LWrist		
		X1	Y1	Z1	X2	Y2	Z2	X3	Y3	Z3	X4	Y4	Z4	X5	Y5	Z5	X6	Y6	Z6	X7	Y7	Z7	X8	Y8	Z8	X9	Y9	Z9	X10	Y10	Z10	X11	Y11	Z11	X12	Y12	Z12	X13	Y13	Z13	X14	Y14	Z14	X15	Y15	Z15	X16	Y16	Z16	X17	Y17	Z17	X18	Y18	Z18	X19	Y19	Z19	X20	Y20	Z20	X21	Y21	Z21	X22	Y22	Z22
52	1.75	1.0434394528542956	-0.5923824210958168	0.0	1.0470474643466463	-0.5951515029160441	0.0	1.1434338196545557	-0.7715049153260044	0.0	1.0298603290949397	-0.9635589605260277	0.0	1.1049864808789673	-1.0142342968965656	0.0	1.084678490607313	-1.0157699832312048	0.0	0.9945692477145931	-0.9830615192091695	0.0	1.044446156303628	-0.594449833429457	0.0	1.1334232462402936	-0.7727728089808549	0.0	1.0510370958921849	-0.9602669885032012	0.0	1.1155869840274584	-0.9993037305965707	0.0	1.1192847737587415	-0.9952906712029387	0.0	1.0052092348352404	-0.9818934667225725	0.0	1.025721953259468	-0.2936839304943261	0.0	1.0560667890436597	-0.16165853808734668	0.0	1.0880261760896104	-0.24223003305208568	0.0	1.0209809056038428	-0.3375933481727041	0.0	1.0763868086993127	-0.4793793216905725	0.0	1.177889034929079	-0.5195317616728082	0.0	0.9973265616741792	-0.3326156221148078	0.0	1.0608661911695039	-0.46224290890946174	0.0	1.1309161590766037	-0.4718314245920615	0.0
53	1.783653846153846	1.0362124235681223	-0.5988609232116017	0.0	1.0399157689614265	-0.6018990743208921	0.0	1.1091876519265176	-0.785578156289218	0.0	1.0004228336612333	-0.965692018450961	0.0	1.0737257185522115	-1.013968188823385	0.0	1.0527180177636084	-1.017429212415061	0.0	0.969384213688749	-0.9837693168214979	0.0	1.0421775603766905	-0.6004300765411018	0.0	1.1305387565852305	-0.785725032285077	0.0	1.0419568621169388	-0.9706994389420808	0.0	1.0923910574679108	-1.0071674310999132	0.0	1.1101221036598283	-1.0052428504353454	0.0	0.9818309884794261	-0.9903705501719787	0.0	1.0220006807059434	-0.29716458446127053	0.0	1.0509313475441455	-0.1622401561938705	0.0	1.0846352289089076	-0.24367206851995027	0.0	1.018382940732043	-0.34579757178576326	0.0	1.0671156045003585	-0.499579711364701	0.0	1.160781324668288	-0.5701081582398484	0.0	0.9953812554893837	-0.3376486905710358	0.0	1.0401191202387983	-0.4786429922201118	0.0	1.1119474363655806	-0.5220153732824078	0.0
54	1.8173076923076923	1.0267180253347563	-0.6012201105005492	0.0	1.0290951543411038	-0.604427624258876	0.0	1.0678250703590169	-0.7944452792023867	0.0	0.9664267917889094	-0.9666834428449158	0.0	1.0380304213698062	-1.013587439686467	0.0	1.0157390710208745	-1.0184338901451502	0.0	0.938249167173012	-0.9843048141523691	0.0	1.0379703783887264	-0.6023103576984844	0.0	1.1277566773365548	-0.7889836759807117	0.0	1.0435511195783864	-0.974364015500112	0.0	1.0797433034734034	-1.0093603429798015	0.0	1.1128729666303825	-1.0075944983562206	0.0	0.9708590172503299	-0.993138335999653	0.0	1.018895362952614	-0.29855220268865645	0.0	1.0482338823724517	-0.16087932731614235	0.0	1.0824514941082468	-0.24348752883043864	0.0	1.0148931498679445	-0.34995183510628763	0.0	1.0559569672462386	-0.5115946386714447	0.0	1.1369364037743626	-0.6113264674527923	0.0	0.9950364052347908	-0.3394304123972501	0.0	1.0182915215348904	-0.48657064087681245	0.0	1.0872517768880958	-0.5608961174931383	0.0
55	1.8509615384615383	1.0156607898850376	-0.600383916215153	0.0	1.0155310432574767	-0.6037594317986743	0.0	1.0249320604090926	-0.7983040883458501	0.0	0.9279283466200494	-0.9680997535426581	0.0	0.9991624572151929	-1.0140568686293638	0.0	0.9748939039564047	-1.0198533428157952	0.0	0.9013850884944379	-0.9859682181401265	0.0	1.032485432612919	-0.6012314330403066	0.0	1.1239043248658998	-0.7863790884711056	0.0	1.0514878505201677	-0.9747531252420079	0.0	1.0826104961710883	-1.0085583731345444	0.0	1.1235214443933832	-1.0062598662552404	0.0	0.9749466852414019	-0.9938964607873673	0.0	1.0159261706029357	-0.2983065533250276	0.0	1.0471652079486335	-0.15818514203812384	0.0	1.0808112938660965	-0.2422026058405375	0.0	1.0105045211105732	-0.35081161233836755	0.0	1.0429267404148248	-0.5166297100865175	0.0	1.1063130232326495	-0.6408421307653221	0.0	0.9957633979416775	-0.33872072898937317	0.0	0.9974209486054944	-0.48796983844396885	0.0	1.058851564677903	-0.586293969600062	0.0
56	1.8846153846153846	1.0038810155416424	-0.5973216053833275	0.0	1.0007513388032727	-0.600902004155223	0.0	0.9854703556310009	-0.7980074963609584	0.0	0.8875953185298687	-0.970482421281435	0.0	0.9601426379976631	-1.0153595782586369	0.0	0.9334787408484779	-1.0218475976580346	0.0	0.8618532153596682	-0.9891057430719065	0.0	1.0262912240208644	-0.5981681775456374	0.0	1.1174676237230177	-0.7810290332848473	0.0	1.06008824531074	-0.9739005302225372	0.0	1.0993775179160046	-1.006644939983628	0.0	1.1353662640913917	-1.0036546629121432	0.0	0.9919048305290636	-0.9943716650672546	0.0	1.0128599769705022	-0.29652334000885316	0.0	1.046999774580415	-0.1544317947284469	0.0	1.079313775650544	-0.23994521690731924	0.0	1.0054818315801328	-0.3490421608715169	0.0	1.0287242264939132	-0.5163975509123346	0.0	1.0709972132810162	-0.6585859028907808	0.0	0.9966393320773832	-0.33603070179398464	0.0	0.9792861260104181	-0.48482078993586636	0.0	1.030753705751956	-0.5979407081164455	0.0
57	1.9182692307692306	0.9921881413954158	-0.5931034269839288	0.0	0.9865074455302407	-0.5968813776673302	0.0	0.9523966160607099	-0.7947974342306809	0.0	0.8514595313148786	-0.9733918038547285	0.0	0.9264473663011664	-1.0169637707748267	0.0	0.8976067295100257	-1.023965516999116	0.0	0.8260477927648977	-0.9931038049686627	0.0	1.019506045350246	-0.5940556528130535	0.0	1.1078672434402872	-0.7752925899171573	0.0	1.0661556796486265	-0.972790859720139	0.0	1.1218957272826755	-1.0048019638110655	0.0	1.144262078910844	-1.0011609094563219	0.0	1.0141300148132038	-0.9949690541754415	0.0	1.0097275569863038	-0.29319389514988886	0.0	1.047068880213314	-0.14974514353007576	0.0	1.077806545851042	-0.2366112142825266	0.0	1.0000523460903152	-0.3452960975943065	0.0	1.0141025283680938	-0.5125460023481913	0.0	1.0341964151650846	-0.666177060319125	0.0	0.9968482686741373	-0.3318191110115566	0.0	0.9650062481676913	-0.4787562143096696	0.0	1.0075535638880002	-0.5972397167037865	0.0
58	1.9519230769230769	0.9812973772942923	-0.5887223910309751	0.0	0.9741749675593762	-0.5925952990368566	0.0	0.9266336673674023	-0.7900758366824326	0.0	0.8249609836230996	-0.9760758955247613	0.0	0.9026983178010606	-1.0183467567397353	0.0	0.8724695130642981	-1.0256670558978827	0.0	0.799632927446281	-0.9970563131279462	0.0	1.0120814207508382	-0.5897472698275935	0.0	1.095474888875012	-0.7707386251939685	0.0	1.0691087055339734	-0.9718422797981343	0.0	1.1413018598984872	-1.0036282452541387	0.0	1.1491426992493559	-0.9994504061271474	0.0	1.033524014709868	-0.9955901260772642	0.0	1.006635439281369	-0.2884913894780685	0.0	1.0468582011469938	-0.14435767911178504	0.0	1.0762615321847662	-0.23224214498698154	0.0	0.9941854836748136	-0.3401929890530259	0.0	0.9991244324978873	-0.5061904403961953	0.0	0.998971498464274	-0.6658809678319086	0.0	0.9961497582650156	-0.32666744005415493	0.0	0.9554435992565359	-0.4710281241432491	0.0	0.9935120816380257	-0.586381398183791	0.0
59	1.985576923076923	0.9718100465732721	-0.5849103060320584	0.0	0.9642620977498455	-0.58866433464887	0.0	0.9076949742945856	-0.7852817824321427	0.0	0.8091828468764799	-0.9780505539830551	0.0	0.889272610399407	-1.0192037464893442	0.0	0.8586336506330112	-1.02664565218066	0.0	0.783828918328045	-1.0003474780183905	0.0	1.004397949225687	-0.585901044241661	0.0	1.081418439528792	-0.7681132067803087	0.0	1.069629409414478	-0.9712395278685922	0.0	1.153612744483864	-1.0031721427528435	0.0	1.150619645203144	-0.9985572783785132	0.0	1.046393757482542	-0.9961654510945089	0.0	1.0035935402500549	-0.28297527173853826	0.0	1.0460848036084816	-0.13873670829005588	0.0	1.074638342698387	-0.22729293203149398	0.0	0.9876539013820453	-0.3344164343167133	0.0	0.983379234778583	-0.4982218232538708	0.0	0.9676192820527845	-0.6602946742265713	0.0	0.9950111551879424	-0.3213300167084888	0.0	0.9512479220929294	-0.46264374029585326	0.0	0.9910586547530369	-0.568126908180752	0.0
60	2.019230769230769	0.9641568220448624	-0.5821072606248678	0.0	0.9563590051738757	-0.5854771971967357	0.0	0.8944321567342175	-0.7817007126167878	0.0	0.8019139416223781	-0.9793311861700981	0.0	0.8834968303997986	-1.0195260548050176	0.0	0.8532722311804688	-1.026988723670738	0.0	0.776589724048183	-1.0028572908018294	0.0	0.9972832467210974	-0.582995853861622	0.0	1.0673798145594586	-0.7674939389362848	0.0	1.0687101647567911	-0.9710259690809827	0.0	1.1592616456983622	-1.0031348245699292	0.0	1.1499939222164375	-0.9980940450616305	0.0	1.0529674516319285	-0.9967543675044748	0.0	1.0005455571931552	-0.2775225686500037	0.0	1.044655613158589	-0.1335545795483124	0.0	1.0728251583826067	-0.2225281639730941	0.0	0.9803783506950974	-0.3288138569933653	0.0	0.9669031337130218	-0.48988994405461517	0.0	0.9415848823614398	-0.6522427191407623	0.0	0.9942507167584699	-0.31660950560634676	0.0	0.952425598392635	-0.45453793700409734	0.0	0.998865314791384	-0.5461576554874638	0.0
